<svg width="42" height="38" viewBox="0 0 42 38" fill="none" xmlns="http://www.w3.org/2000/svg">
<rect width="36" height="36" rx="6" fill="#FD5252" fill-opacity="0.25"/>
<path d="M10.4833 16.8952C10.0536 16.8952 9.8384 16.3504 10.1422 16.0318L17.659 9.14815C17.8473 8.95062 18.1527 8.95062 18.341 9.14815L25.8578 16.0318C26.1616 16.3504 25.9464 16.8952 25.5167 16.8952H21.6806C21.4142 16.8952 21.1983 17.1217 21.1983 17.4011V26.4942C21.1983 26.7735 20.9824 27 20.716 27H15.284C15.0176 27 14.8017 26.7735 14.8017 26.4942L14.8017 17.4011C14.8017 17.1217 14.5858 16.8952 14.3194 16.8952H10.4833Z" stroke="black" stroke-width="1.5" stroke-linecap="round" stroke-linejoin="round"/>
<path d="M10.4833 16.8952C10.0536 16.8952 9.8384 16.3504 10.1422 16.0318L17.659 9.14815C17.8473 8.95062 18.1527 8.95062 18.341 9.14815L25.8578 16.0318C26.1616 16.3504 25.9464 16.8952 25.5167 16.8952H21.6806C21.4142 16.8952 21.1983 17.1217 21.1983 17.4011V26.4942C21.1983 26.7735 20.9824 27 20.716 27H15.284C15.0176 27 14.8017 26.7735 14.8017 26.4942L14.8017 17.4011C14.8017 17.1217 14.5858 16.8952 14.3194 16.8952H10.4833Z" stroke="black" stroke-width="1.5" stroke-linecap="round" stroke-linejoin="round"/>
</svg>
