<svg width="1126" height="748" viewBox="0 0 1126 748" fill="none" xmlns="http://www.w3.org/2000/svg">
<path d="M0 18C0 12.4087 0 9.61305 0.913446 7.4078C2.13137 4.46746 4.46746 2.13137 7.4078 0.913446C9.61305 0 12.4087 0 18 0H1108C1113.59 0 1116.39 0 1118.59 0.913446C1121.53 2.13137 1123.87 4.46746 1125.09 7.4078C1126 9.61305 1126 12.4087 1126 18V730C1126 735.591 1126 738.387 1125.09 740.592C1123.87 743.533 1121.53 745.869 1118.59 747.087C1116.39 748 1113.59 748 1108 748H18C12.4087 748 9.61305 748 7.4078 747.087C4.46746 745.869 2.13137 743.533 0.913446 740.592C0 738.387 0 735.591 0 730V18Z" fill="white"/>
</svg>
