<svg width="1100" height="729" viewBox="0 0 1100 729" fill="none" xmlns="http://www.w3.org/2000/svg">
<path d="M0 18C0 12.4087 0 9.61305 0.913446 7.4078C2.13137 4.46746 4.46746 2.13137 7.4078 0.913446C9.61305 0 12.4087 0 18 0H1082C1087.59 0 1090.39 0 1092.59 0.913446C1095.53 2.13137 1097.87 4.46746 1099.09 7.4078C1100 9.61305 1100 12.4087 1100 18V711C1100 716.591 1100 719.387 1099.09 721.592C1097.87 724.533 1095.53 726.869 1092.59 728.087C1090.39 729 1087.59 729 1082 729H18C12.4087 729 9.61305 729 7.4078 728.087C4.46746 726.869 2.13137 724.533 0.913446 721.592C0 719.387 0 716.591 0 711V18Z" fill="white"/>
</svg>
