<svg width="1127" height="763" viewBox="0 0 1127 763" fill="none" xmlns="http://www.w3.org/2000/svg">
<path d="M0 18C0 12.4087 0 9.61305 0.913446 7.4078C2.13137 4.46746 4.46746 2.13137 7.4078 0.913446C9.61305 0 12.4087 0 18 0H1109C1114.59 0 1117.39 0 1119.59 0.913446C1122.53 2.13137 1124.87 4.46746 1126.09 7.4078C1127 9.61305 1127 12.4087 1127 18V744.488C1127 750.08 1127 752.875 1126.09 755.081C1124.87 758.021 1122.53 760.357 1119.59 761.575C1117.39 762.488 1114.59 762.488 1109 762.488H18C12.4087 762.488 9.61305 762.488 7.4078 761.575C4.46746 760.357 2.13137 758.021 0.913446 755.081C0 752.875 0 750.08 0 744.488V18Z" fill="white"/>
</svg>
