<svg width="491" height="373" viewBox="0 0 491 373" fill="none" xmlns="http://www.w3.org/2000/svg">
<path d="M0 18C0 12.4087 0 9.61305 0.913446 7.4078C2.13137 4.46746 4.46746 2.13137 7.4078 0.913446C9.61305 0 12.4087 0 18 0H473C478.591 0 481.387 0 483.592 0.913446C486.533 2.13137 488.869 4.46746 490.087 7.4078C491 9.61305 491 12.4087 491 18V355C491 360.591 491 363.387 490.087 365.592C488.869 368.533 486.533 370.869 483.592 372.087C481.387 373 478.591 373 473 373H18C12.4087 373 9.61305 373 7.4078 372.087C4.46746 370.869 2.13137 368.533 0.913446 365.592C0 363.387 0 360.591 0 355V18Z" fill="white"/>
</svg>
