<svg width="335" height="340" viewBox="0 0 335 340" fill="none" xmlns="http://www.w3.org/2000/svg">
<path d="M0 18C0 12.4087 0 9.61305 0.913446 7.4078C2.13137 4.46746 4.46746 2.13137 7.4078 0.913446C9.61305 0 12.4087 0 18 0H317C322.591 0 325.387 0 327.592 0.913446C330.533 2.13137 332.869 4.46746 334.087 7.4078C335 9.61305 335 12.4087 335 18V322C335 327.591 335 330.387 334.087 332.592C332.869 335.533 330.533 337.869 327.592 339.087C325.387 340 322.591 340 317 340H18C12.4087 340 9.61305 340 7.4078 339.087C4.46746 337.869 2.13137 335.533 0.913446 332.592C0 330.387 0 327.591 0 322V18Z" fill="white"/>
</svg>
