<svg width="451" height="340" viewBox="0 0 451 340" fill="none" xmlns="http://www.w3.org/2000/svg">
<path d="M0 18C0 12.4087 0 9.61305 0.913446 7.4078C2.13137 4.46746 4.46746 2.13137 7.4078 0.913446C9.61305 0 12.4087 0 18 0H433C438.591 0 441.387 0 443.592 0.913446C446.533 2.13137 448.869 4.46746 450.087 7.4078C451 9.61305 451 12.4087 451 18V322C451 327.591 451 330.387 450.087 332.592C448.869 335.533 446.533 337.869 443.592 339.087C441.387 340 438.591 340 433 340H18C12.4087 340 9.61305 340 7.4078 339.087C4.46746 337.869 2.13137 335.533 0.913446 332.592C0 330.387 0 327.591 0 322V18Z" fill="white"/>
</svg>
