<svg width="58" height="49" viewBox="0 0 58 49" fill="none" xmlns="http://www.w3.org/2000/svg">
<path d="M12.0613 48.6752L13.8371 46.4443" stroke="#CCCCCC"/>
<path d="M9.7019 46.932L11.7234 44.8828" stroke="#CCCCCC"/>
<path d="M7.55566 44.973L9.8008 43.1279" stroke="#CCCCCC"/>
<path d="M5.64404 42.8191L8.08818 41.1982" stroke="#CCCCCC"/>
<path d="M2.61206 38.0268L5.37199 36.9053" stroke="#CCCCCC"/>
<path d="M1.52441 35.44L4.39767 34.5879" stroke="#CCCCCC"/>
<path d="M0.739502 32.7628L3.69461 32.1895" stroke="#CCCCCC"/>
<path d="M0.263916 30.0265L3.26849 29.7383" stroke="#CCCCCC"/>
<path d="M0.263916 24.4922L3.26849 24.7804" stroke="#CCCCCC"/>
<path d="M0.739502 21.7559L3.69461 22.3292" stroke="#CCCCCC"/>
<path d="M1.52441 19.0791L4.39767 19.9312" stroke="#CCCCCC"/>
<path d="M2.61206 16.4922L5.37199 17.6138" stroke="#CCCCCC"/>
<path d="M5.64404 11.6992L8.08818 13.32" stroke="#CCCCCC"/>
<path d="M7.55566 9.5459L9.8008 11.391" stroke="#CCCCCC"/>
<path d="M9.7019 7.58691L11.7234 9.63612" stroke="#CCCCCC"/>
<path d="M12.0613 5.84375L13.8371 8.0746" stroke="#CCCCCC"/>
<path d="M17.3125 3.07617L18.5413 5.59526" stroke="#CCCCCC"/>
<path d="M20.1458 2.08301L21.0793 4.70553" stroke="#CCCCCC"/>
<path d="M23.0784 1.36621L23.7065 4.06344" stroke="#CCCCCC"/>
<path d="M26.0762 0.932617L26.392 3.675" stroke="#CCCCCC"/>
<path d="M32.1398 0.932617L31.824 3.675" stroke="#CCCCCC"/>
<path d="M35.1389 1.36621L34.5107 4.06344" stroke="#CCCCCC"/>
<path d="M38.0708 2.08301L37.1372 4.70553" stroke="#CCCCCC"/>
<path d="M40.9046 3.07617L39.6758 5.59526" stroke="#CCCCCC"/>
<path d="M46.1559 5.84375L44.3801 8.0746" stroke="#CCCCCC"/>
<path d="M48.5152 7.58691L46.4937 9.63612" stroke="#CCCCCC"/>
<path d="M50.6616 9.5459L48.4165 11.391" stroke="#CCCCCC"/>
<path d="M52.5721 11.6992L50.1279 13.32" stroke="#CCCCCC"/>
<path d="M55.6039 16.4922L52.844 17.6138" stroke="#CCCCCC"/>
<path d="M56.6909 19.0791L53.8176 19.9312" stroke="#CCCCCC"/>
<path d="M57.4763 21.7559L54.5212 22.3292" stroke="#CCCCCC"/>
<path d="M57.9523 24.4922L54.9478 24.7804" stroke="#CCCCCC"/>
<path d="M57.9523 30.0265L54.9478 29.7383" stroke="#CCCCCC"/>
<path d="M57.4763 32.7628L54.5212 32.1895" stroke="#CCCCCC"/>
<path d="M56.6909 35.44L53.8176 34.5879" stroke="#CCCCCC"/>
<path d="M55.6039 38.0268L52.844 36.9053" stroke="#CCCCCC"/>
<path d="M52.5721 42.8191L50.1279 41.1982" stroke="#CCCCCC"/>
<path d="M50.6616 44.973L48.4165 43.1279" stroke="#CCCCCC"/>
<path d="M48.5152 46.932L46.4937 44.8828" stroke="#CCCCCC"/>
<path d="M46.1559 48.6752L44.3801 46.4443" stroke="#CCCCCC"/>
</svg>
