<svg width="117" height="88" viewBox="0 0 117 88" fill="none" xmlns="http://www.w3.org/2000/svg">
<path d="M24.4414 86.8306L28.0139 82.8218" stroke="#CCCCCC"/>
<path d="M19.6953 83.6971L23.7622 80.0146" stroke="#CCCCCC"/>
<path d="M15.375 80.1763L19.8917 76.8606" stroke="#CCCCCC"/>
<path d="M11.5332 76.3066L16.4503 73.394" stroke="#CCCCCC"/>
<path d="M5.43359 67.6942L10.986 65.6787" stroke="#CCCCCC"/>
<path d="M3.24609 63.0456L9.02648 61.5144" stroke="#CCCCCC"/>
<path d="M1.66406 58.2358L7.6091 57.2056" stroke="#CCCCCC"/>
<path d="M0.708984 53.3183L6.75355 52.8003" stroke="#CCCCCC"/>
<path d="M0.708984 43.3733L6.75355 43.8913" stroke="#CCCCCC"/>
<path d="M1.66406 38.4553L7.6091 39.4856" stroke="#CCCCCC"/>
<path d="M3.24609 33.6458L9.02648 35.177" stroke="#CCCCCC"/>
<path d="M5.43359 28.9973L10.986 31.0128" stroke="#CCCCCC"/>
<path d="M11.5332 20.3848L16.4503 23.2974" stroke="#CCCCCC"/>
<path d="M15.375 16.5154L19.8917 19.8311" stroke="#CCCCCC"/>
<path d="M19.6953 12.9944L23.7622 16.6768" stroke="#CCCCCC"/>
<path d="M24.4414 9.86084L28.0139 13.8697" stroke="#CCCCCC"/>
<path d="M35.0039 4.88818L37.476 9.41498" stroke="#CCCCCC"/>
<path d="M40.707 3.104L42.5852 7.81668" stroke="#CCCCCC"/>
<path d="M46.6055 1.81519L47.8691 6.6621" stroke="#CCCCCC"/>
<path d="M52.6387 1.03638L53.274 5.96443" stroke="#CCCCCC"/>
<path d="M64.8365 1.03638L64.2012 5.96443" stroke="#CCCCCC"/>
<path d="M70.8672 1.81519L69.6035 6.6621" stroke="#CCCCCC"/>
<path d="M76.7668 3.104L74.8887 7.81668" stroke="#CCCCCC"/>
<path d="M82.4682 4.88818L79.9961 9.41498" stroke="#CCCCCC"/>
<path d="M93.0334 9.86084L89.4609 13.8697" stroke="#CCCCCC"/>
<path d="M97.7798 12.9944L93.7129 16.6768" stroke="#CCCCCC"/>
<path d="M102.097 16.5154L97.5801 19.8311" stroke="#CCCCCC"/>
<path d="M105.941 20.3848L101.023 23.2974" stroke="#CCCCCC"/>
<path d="M112.041 28.9973L106.488 31.0128" stroke="#CCCCCC"/>
<path d="M114.23 33.6458L108.449 35.177" stroke="#CCCCCC"/>
<path d="M115.808 38.4553L109.863 39.4856" stroke="#CCCCCC"/>
<path d="M116.765 43.3733L110.721 43.8913" stroke="#CCCCCC"/>
<path d="M116.765 53.3183L110.721 52.8003" stroke="#CCCCCC"/>
<path d="M115.808 58.2358L109.863 57.2056" stroke="#CCCCCC"/>
<path d="M114.23 63.0456L108.449 61.5144" stroke="#CCCCCC"/>
<path d="M112.041 67.6942L106.488 65.6787" stroke="#CCCCCC"/>
<path d="M105.941 76.3066L101.023 73.394" stroke="#CCCCCC"/>
<path d="M102.097 80.1763L97.5801 76.8606" stroke="#CCCCCC"/>
<path d="M97.7798 83.6971L93.7129 80.0146" stroke="#CCCCCC"/>
<path d="M93.0334 86.8306L89.4609 82.8218" stroke="#CCCCCC"/>
</svg>
