<svg width="58" height="49" viewBox="0 0 58 49" fill="none" xmlns="http://www.w3.org/2000/svg">
<path d="M11.9941 48.5267L13.7655 46.3013" stroke="#CCCCCC"/>
<path d="M9.64062 46.7874L11.6572 44.7432" stroke="#CCCCCC"/>
<path d="M7.49976 44.8329L9.73937 42.9922" stroke="#CCCCCC"/>
<path d="M5.59277 42.6848L8.03091 41.0679" stroke="#CCCCCC"/>
<path d="M2.56836 37.9035L5.32151 36.7847" stroke="#CCCCCC"/>
<path d="M1.4834 35.3232L4.3496 34.4731" stroke="#CCCCCC"/>
<path d="M0.700439 32.653L3.64828 32.0811" stroke="#CCCCCC"/>
<path d="M0.226074 29.9228L3.22326 29.6353" stroke="#CCCCCC"/>
<path d="M0.226074 24.4019L3.22326 24.6894" stroke="#CCCCCC"/>
<path d="M0.700439 21.6719L3.64828 22.2438" stroke="#CCCCCC"/>
<path d="M1.4834 19.002L4.3496 19.852" stroke="#CCCCCC"/>
<path d="M2.56836 16.4214L5.32151 17.5403" stroke="#CCCCCC"/>
<path d="M5.59277 11.6401L8.03091 13.257" stroke="#CCCCCC"/>
<path d="M7.49976 9.4917L9.73937 11.3324" stroke="#CCCCCC"/>
<path d="M9.64062 7.53711L11.6572 9.58138" stroke="#CCCCCC"/>
<path d="M11.9941 5.79785L13.7655 8.02333" stroke="#CCCCCC"/>
<path d="M17.2329 3.03711L18.4587 5.55012" stroke="#CCCCCC"/>
<path d="M20.0591 2.04688L20.9904 4.66308" stroke="#CCCCCC"/>
<path d="M22.9846 1.33105L23.6112 4.02178" stroke="#CCCCCC"/>
<path d="M25.9749 0.898926L26.2899 3.63469" stroke="#CCCCCC"/>
<path d="M32.0238 0.898926L31.7087 3.63469" stroke="#CCCCCC"/>
<path d="M35.0155 1.33105L34.3889 4.02178" stroke="#CCCCCC"/>
<path d="M37.9401 2.04688L37.0088 4.66308" stroke="#CCCCCC"/>
<path d="M40.767 3.03711L39.5413 5.55012" stroke="#CCCCCC"/>
<path d="M46.0053 5.79785L44.2339 8.02333" stroke="#CCCCCC"/>
<path d="M48.3588 7.53711L46.3423 9.58138" stroke="#CCCCCC"/>
<path d="M50.5001 9.4917L48.2605 11.3324" stroke="#CCCCCC"/>
<path d="M52.4059 11.6401L49.9678 13.257" stroke="#CCCCCC"/>
<path d="M55.4302 16.4214L52.677 17.5403" stroke="#CCCCCC"/>
<path d="M56.5146 19.0015L53.6484 19.8515" stroke="#CCCCCC"/>
<path d="M57.2979 21.6714L54.3501 22.2433" stroke="#CCCCCC"/>
<path d="M57.7728 24.4019L54.7756 24.6894" stroke="#CCCCCC"/>
<path d="M57.7728 29.9228L54.7756 29.6353" stroke="#CCCCCC"/>
<path d="M57.2979 32.653L54.3501 32.0811" stroke="#CCCCCC"/>
<path d="M56.5146 35.3227L53.6484 34.4727" stroke="#CCCCCC"/>
<path d="M55.4302 37.9035L52.677 36.7847" stroke="#CCCCCC"/>
<path d="M52.4059 42.6848L49.9678 41.0679" stroke="#CCCCCC"/>
<path d="M50.5001 44.8329L48.2605 42.9922" stroke="#CCCCCC"/>
<path d="M48.3588 46.7874L46.3423 44.7432" stroke="#CCCCCC"/>
<path d="M46.0053 48.5267L44.2339 46.3013" stroke="#CCCCCC"/>
</svg>
