<svg width="137" height="111" viewBox="0 0 137 111" fill="none" xmlns="http://www.w3.org/2000/svg">
<path d="M28.4976 110.473L32.6644 105.319" stroke="#CCCCCC"/>
<path d="M22.9619 106.445L27.7054 101.711" stroke="#CCCCCC"/>
<path d="M17.9243 101.919L23.1925 97.6562" stroke="#CCCCCC"/>
<path d="M13.4429 96.9433L19.178 93.1992" stroke="#CCCCCC"/>
<path d="M6.32861 85.8721L12.8048 83.2812" stroke="#CCCCCC"/>
<path d="M3.77539 79.8971L10.5175 77.9287" stroke="#CCCCCC"/>
<path d="M1.93311 73.714L8.86723 72.3896" stroke="#CCCCCC"/>
<path d="M0.817871 67.3924L7.86808 66.7266" stroke="#CCCCCC"/>
<path d="M0.817871 54.6084L7.86808 55.2742" stroke="#CCCCCC"/>
<path d="M1.93311 48.2861L8.86723 49.6105" stroke="#CCCCCC"/>
<path d="M3.77539 42.1035L10.5175 44.0719" stroke="#CCCCCC"/>
<path d="M6.32861 36.1279L12.8048 38.7188" stroke="#CCCCCC"/>
<path d="M13.4429 25.0566L19.178 28.8008" stroke="#CCCCCC"/>
<path d="M17.9243 20.083L23.1925 24.3453" stroke="#CCCCCC"/>
<path d="M22.9619 15.5566L27.7054 20.2904" stroke="#CCCCCC"/>
<path d="M28.4976 11.5283L32.6644 16.6816" stroke="#CCCCCC"/>
<path d="M40.8193 5.13574L43.7027 10.9549" stroke="#CCCCCC"/>
<path d="M47.4692 2.84277L49.6599 8.90087" stroke="#CCCCCC"/>
<path d="M54.3506 1.18555L55.8245 7.41621" stroke="#CCCCCC"/>
<path d="M61.3862 0.18457L62.1272 6.51954" stroke="#CCCCCC"/>
<path d="M75.6136 0.18457L74.8726 6.51954" stroke="#CCCCCC"/>
<path d="M82.6492 1.18555L81.1753 7.41621" stroke="#CCCCCC"/>
<path d="M89.5295 2.84277L87.3389 8.90087" stroke="#CCCCCC"/>
<path d="M96.1793 5.13574L93.2959 10.9549" stroke="#CCCCCC"/>
<path d="M108.501 11.5283L104.334 16.6816" stroke="#CCCCCC"/>
<path d="M114.038 15.5566L109.294 20.2904" stroke="#CCCCCC"/>
<path d="M119.075 20.083L113.807 24.3453" stroke="#CCCCCC"/>
<path d="M123.557 25.0566L117.822 28.8008" stroke="#CCCCCC"/>
<path d="M130.671 36.1279L124.195 38.7188" stroke="#CCCCCC"/>
<path d="M133.225 42.1035L126.482 44.0719" stroke="#CCCCCC"/>
<path d="M135.067 48.2861L128.133 49.6105" stroke="#CCCCCC"/>
<path d="M136.181 54.6084L129.131 55.2742" stroke="#CCCCCC"/>
<path d="M136.181 67.3924L129.131 66.7266" stroke="#CCCCCC"/>
<path d="M135.067 73.714L128.133 72.3896" stroke="#CCCCCC"/>
<path d="M133.225 79.8971L126.482 77.9287" stroke="#CCCCCC"/>
<path d="M130.671 85.8721L124.195 83.2812" stroke="#CCCCCC"/>
<path d="M123.557 96.9433L117.822 93.1992" stroke="#CCCCCC"/>
<path d="M119.075 101.919L113.807 97.6562" stroke="#CCCCCC"/>
<path d="M114.038 106.445L109.294 101.711" stroke="#CCCCCC"/>
<path d="M108.501 110.473L104.334 105.319" stroke="#CCCCCC"/>
</svg>
