<svg width="111" height="87" viewBox="0 0 111 87" fill="none" xmlns="http://www.w3.org/2000/svg">
<path d="M22.8398 85.9714L26.2418 81.9912" stroke="#CCCCCC"/>
<path d="M18.3203 82.8602L22.193 79.2041" stroke="#CCCCCC"/>
<path d="M14.209 79.3652L18.5101 76.0732" stroke="#CCCCCC"/>
<path d="M10.5469 75.5236L15.2292 72.6318" stroke="#CCCCCC"/>
<path d="M4.73828 66.9717L10.0256 64.9707" stroke="#CCCCCC"/>
<path d="M2.6543 62.3572L8.1587 60.8369" stroke="#CCCCCC"/>
<path d="M1.15039 57.5805L6.81159 56.5586" stroke="#CCCCCC"/>
<path d="M0.240234 52.6983L5.9962 52.1846" stroke="#CCCCCC"/>
<path d="M0.240234 42.8252L5.9962 43.339" stroke="#CCCCCC"/>
<path d="M1.15039 37.9414L6.81159 38.9633" stroke="#CCCCCC"/>
<path d="M2.6543 33.167L8.1587 34.6873" stroke="#CCCCCC"/>
<path d="M4.73828 28.5527L10.0256 30.5538" stroke="#CCCCCC"/>
<path d="M10.5469 20.001L15.2292 22.8927" stroke="#CCCCCC"/>
<path d="M14.209 16.1592L18.5101 19.4511" stroke="#CCCCCC"/>
<path d="M18.3203 12.6641L22.193 16.3202" stroke="#CCCCCC"/>
<path d="M22.8398 9.55371L26.2418 13.5339" stroke="#CCCCCC"/>
<path d="M32.9004 4.61621L35.2544 9.11063" stroke="#CCCCCC"/>
<path d="M38.3281 2.84277L40.1166 7.52174" stroke="#CCCCCC"/>
<path d="M43.9473 1.56445L45.1506 6.3767" stroke="#CCCCCC"/>
<path d="M49.6895 0.791016L50.2944 5.68382" stroke="#CCCCCC"/>
<path d="M61.3061 0.791016L60.7012 5.68382" stroke="#CCCCCC"/>
<path d="M67.051 1.56445L65.8477 6.3767" stroke="#CCCCCC"/>
<path d="M72.6674 2.84277L70.8789 7.52174" stroke="#CCCCCC"/>
<path d="M78.0982 4.61621L75.7441 9.11063" stroke="#CCCCCC"/>
<path d="M88.1578 9.55371L84.7559 13.5339" stroke="#CCCCCC"/>
<path d="M92.6774 12.6641L88.8047 16.3202" stroke="#CCCCCC"/>
<path d="M96.7894 16.1592L92.4883 19.4511" stroke="#CCCCCC"/>
<path d="M100.45 20.001L95.7676 22.8927" stroke="#CCCCCC"/>
<path d="M106.258 28.5527L100.971 30.5538" stroke="#CCCCCC"/>
<path d="M108.34 33.167L102.836 34.6873" stroke="#CCCCCC"/>
<path d="M109.845 37.9414L104.184 38.9633" stroke="#CCCCCC"/>
<path d="M110.756 42.8252L105 43.339" stroke="#CCCCCC"/>
<path d="M110.756 52.6983L105 52.1846" stroke="#CCCCCC"/>
<path d="M109.845 57.5805L104.184 56.5586" stroke="#CCCCCC"/>
<path d="M108.34 62.3562L102.836 60.8359" stroke="#CCCCCC"/>
<path d="M106.258 66.9717L100.971 64.9707" stroke="#CCCCCC"/>
<path d="M100.45 75.5236L95.7676 72.6318" stroke="#CCCCCC"/>
<path d="M96.7894 79.3652L92.4883 76.0732" stroke="#CCCCCC"/>
<path d="M92.6774 82.8602L88.8047 79.2041" stroke="#CCCCCC"/>
<path d="M88.1578 85.9714L84.7559 81.9912" stroke="#CCCCCC"/>
</svg>
