<svg width="137" height="111" viewBox="0 0 137 111" fill="none" xmlns="http://www.w3.org/2000/svg">
<path d="M28.4995 110.514L32.6663 105.359" stroke="#CCCCCC"/>
<path d="M22.9639 106.484L27.7074 101.749" stroke="#CCCCCC"/>
<path d="M17.9277 101.957L23.1959 97.6934" stroke="#CCCCCC"/>
<path d="M13.4458 96.9816L19.181 93.2363" stroke="#CCCCCC"/>
<path d="M6.33154 85.9071L12.8077 83.3154" stroke="#CCCCCC"/>
<path d="M3.77734 79.9299L10.5194 77.9609" stroke="#CCCCCC"/>
<path d="M1.93604 73.7447L8.87016 72.4199" stroke="#CCCCCC"/>
<path d="M0.820312 67.4209L7.87052 66.7549" stroke="#CCCCCC"/>
<path d="M0.820312 54.6328L7.87052 55.2988" stroke="#CCCCCC"/>
<path d="M1.93604 48.3096L8.87016 49.6343" stroke="#CCCCCC"/>
<path d="M3.77734 42.125L10.5194 44.094" stroke="#CCCCCC"/>
<path d="M6.33154 36.1475L12.8077 38.7391" stroke="#CCCCCC"/>
<path d="M13.4458 25.0732L19.181 28.8185" stroke="#CCCCCC"/>
<path d="M17.9277 20.0977L23.1959 24.3612" stroke="#CCCCCC"/>
<path d="M22.9639 15.5703L27.7074 20.3054" stroke="#CCCCCC"/>
<path d="M28.4995 11.541L32.6663 16.6959" stroke="#CCCCCC"/>
<path d="M40.8213 5.14648L43.7047 10.9674" stroke="#CCCCCC"/>
<path d="M47.4707 2.85156L49.6613 8.91146" stroke="#CCCCCC"/>
<path d="M54.3535 1.19531L55.8274 7.42783" stroke="#CCCCCC"/>
<path d="M61.3896 0.193359L62.1307 6.53021" stroke="#CCCCCC"/>
<path d="M75.6155 0.193359L74.8745 6.53021" stroke="#CCCCCC"/>
<path d="M82.6521 1.19531L81.1782 7.42783" stroke="#CCCCCC"/>
<path d="M89.5319 2.85156L87.3413 8.91146" stroke="#CCCCCC"/>
<path d="M96.1812 5.14648L93.2979 10.9674" stroke="#CCCCCC"/>
<path d="M108.503 11.541L104.336 16.6959" stroke="#CCCCCC"/>
<path d="M114.041 15.5703L109.298 20.3054" stroke="#CCCCCC"/>
<path d="M119.077 20.0977L113.809 24.3612" stroke="#CCCCCC"/>
<path d="M123.559 25.0732L117.824 28.8185" stroke="#CCCCCC"/>
<path d="M130.672 36.1475L124.196 38.7391" stroke="#CCCCCC"/>
<path d="M133.227 42.125L126.485 44.094" stroke="#CCCCCC"/>
<path d="M135.069 48.3096L128.135 49.6343" stroke="#CCCCCC"/>
<path d="M136.184 54.6328L129.133 55.2988" stroke="#CCCCCC"/>
<path d="M136.184 67.4209L129.133 66.7549" stroke="#CCCCCC"/>
<path d="M135.069 73.7447L128.135 72.4199" stroke="#CCCCCC"/>
<path d="M133.227 79.9299L126.485 77.9609" stroke="#CCCCCC"/>
<path d="M130.672 85.9071L124.196 83.3154" stroke="#CCCCCC"/>
<path d="M123.559 96.9816L117.824 93.2363" stroke="#CCCCCC"/>
<path d="M119.077 101.957L113.809 97.6934" stroke="#CCCCCC"/>
<path d="M114.041 106.484L109.298 101.749" stroke="#CCCCCC"/>
<path d="M108.503 110.514L104.336 105.359" stroke="#CCCCCC"/>
</svg>
