<svg width="23" height="21" viewBox="0 0 23 21" fill="none" xmlns="http://www.w3.org/2000/svg">
<path d="M5.02056 11.1358C5.51624 11.1358 5.91807 10.7599 5.91807 10.2963C5.91807 9.83265 5.51624 9.45679 5.02056 9.45679C4.52488 9.45679 4.12305 9.83265 4.12305 10.2963C4.12305 10.7599 4.52488 11.1358 5.02056 11.1358Z" stroke="#64748B" stroke-width="1.5" stroke-linecap="round" stroke-linejoin="round"/>
<path d="M11.3038 11.1358C11.7994 11.1358 12.2013 10.7599 12.2013 10.2963C12.2013 9.83265 11.7994 9.45679 11.3038 9.45679C10.8081 9.45679 10.4062 9.83265 10.4062 10.2963C10.4062 10.7599 10.8081 11.1358 11.3038 11.1358Z" stroke="#64748B" stroke-width="1.5" stroke-linecap="round" stroke-linejoin="round"/>
<path d="M17.585 11.1358C18.0807 11.1358 18.4825 10.7599 18.4825 10.2963C18.4825 9.83265 18.0807 9.45679 17.585 9.45679C17.0893 9.45679 16.6875 9.83265 16.6875 10.2963C16.6875 10.7599 17.0893 11.1358 17.585 11.1358Z" stroke="#64748B" stroke-width="1.5" stroke-linecap="round" stroke-linejoin="round"/>
</svg>
