<svg width="16" height="21" viewBox="0 0 16 21" fill="none" xmlns="http://www.w3.org/2000/svg">
<path d="M3.33317 11.136C3.70136 11.136 3.99984 10.7602 3.99984 10.2965C3.99984 9.83289 3.70136 9.45703 3.33317 9.45703C2.96498 9.45703 2.6665 9.83289 2.6665 10.2965C2.6665 10.7602 2.96498 11.136 3.33317 11.136Z" stroke="#64748B" stroke-width="1.5" stroke-linecap="round" stroke-linejoin="round"/>
<path d="M7.99967 11.136C8.36786 11.136 8.66634 10.7602 8.66634 10.2965C8.66634 9.83289 8.36786 9.45703 7.99967 9.45703C7.63148 9.45703 7.33301 9.83289 7.33301 10.2965C7.33301 10.7602 7.63148 11.136 7.99967 11.136Z" stroke="#64748B" stroke-width="1.5" stroke-linecap="round" stroke-linejoin="round"/>
<path d="M12.6667 11.136C13.0349 11.136 13.3333 10.7602 13.3333 10.2965C13.3333 9.83289 13.0349 9.45703 12.6667 9.45703C12.2985 9.45703 12 9.83289 12 10.2965C12 10.7602 12.2985 11.136 12.6667 11.136Z" stroke="#64748B" stroke-width="1.5" stroke-linecap="round" stroke-linejoin="round"/>
</svg>
