<svg width="16" height="16" viewBox="0 0 16 16" fill="none" xmlns="http://www.w3.org/2000/svg">
<path d="M3.33341 8.66634C3.7016 8.66634 4.00008 8.36786 4.00008 7.99967C4.00008 7.63148 3.7016 7.33301 3.33341 7.33301C2.96522 7.33301 2.66675 7.63148 2.66675 7.99967C2.66675 8.36786 2.96522 8.66634 3.33341 8.66634Z" stroke="#0F172A" stroke-width="1.5" stroke-linecap="round" stroke-linejoin="round"/>
<path d="M8.00016 8.66634C8.36835 8.66634 8.66683 8.36786 8.66683 7.99967C8.66683 7.63148 8.36835 7.33301 8.00016 7.33301C7.63197 7.33301 7.3335 7.63148 7.3335 7.99967C7.3335 8.36786 7.63197 8.66634 8.00016 8.66634Z" stroke="#0F172A" stroke-width="1.5" stroke-linecap="round" stroke-linejoin="round"/>
<path d="M12.6667 8.66634C13.0349 8.66634 13.3333 8.36786 13.3333 7.99967C13.3333 7.63148 13.0349 7.33301 12.6667 7.33301C12.2985 7.33301 12 7.63148 12 7.99967C12 8.36786 12.2985 8.66634 12.6667 8.66634Z" stroke="#0F172A" stroke-width="1.5" stroke-linecap="round" stroke-linejoin="round"/>
</svg>
