<svg width="28" height="29" viewBox="0 0 28 29" fill="none" xmlns="http://www.w3.org/2000/svg">
<path fill-rule="evenodd" clip-rule="evenodd" d="M0.529798 4.8766C0 6.15565 0 7.77712 0 11.0201V17.9801C0 21.223 0 22.8445 0.529798 24.1236C1.2362 25.829 2.59113 27.1839 4.29652 27.8903C5.57557 28.4201 7.19704 28.4201 10.44 28.4201H17.4C20.643 28.4201 22.2644 28.4201 23.5435 27.8903C25.2489 27.1839 26.6038 25.829 27.3102 24.1236C27.84 22.8445 27.84 21.223 27.84 17.9801V11.0201C27.84 7.77712 27.84 6.15565 27.3102 4.8766C26.6038 3.17121 25.2489 1.81627 23.5435 1.10988C22.2644 0.580078 20.643 0.580078 17.4 0.580078H10.44C7.19705 0.580078 5.57557 0.580078 4.29652 1.10988C2.59113 1.81627 1.2362 3.17121 0.529798 4.8766ZM16.0554 8.20226C16.0852 8.09397 15.9591 8.01067 15.8713 8.08068L8.10189 14.271C8.02774 14.3301 8.05193 14.4483 8.14332 14.4736L12.2847 15.6163C12.3465 15.6334 12.3828 15.6973 12.3657 15.759L11.0515 20.5216C11.0217 20.6299 11.1478 20.7132 11.2356 20.6432L19.005 14.4529C19.0792 14.3938 19.055 14.2755 18.9636 14.2503L14.8221 13.1076C14.7604 13.0905 14.7241 13.0266 14.7412 12.9649L16.0554 8.20226Z" fill="#2563EB"/>
</svg>
