<svg width="40" height="67" viewBox="0 0 40 67" fill="none" xmlns="http://www.w3.org/2000/svg">
<path d="M18 40C18 39.4696 18.2107 38.9609 18.5858 38.5858C18.9609 38.2107 19.4696 38 20 38C20.5304 38 21.0391 38.2107 21.4142 38.5858C21.7893 38.9609 22 39.4696 22 40C23.1484 40.543 24.1274 41.3883 24.8321 42.4453C25.5367 43.5023 25.9404 44.7311 26 46V49C26.0753 49.6217 26.2954 50.2171 26.6428 50.7381C26.9902 51.2592 27.4551 51.6914 28 52H12C12.5449 51.6914 13.0098 51.2592 13.3572 50.7381C13.7046 50.2171 13.9247 49.6217 14 49V46C14.0596 44.7311 14.4633 43.5023 15.1679 42.4453C15.8726 41.3883 16.8516 40.543 18 40" stroke="#64748B" stroke-width="1.5" stroke-linecap="round" stroke-linejoin="round"/>
<path d="M17 52V53C17 53.7956 17.3161 54.5587 17.8787 55.1213C18.4413 55.6839 19.2044 56 20 56C20.7956 56 21.5587 55.6839 22.1213 55.1213C22.6839 54.5587 23 53.7956 23 53V52" stroke="#64748B" stroke-width="1.5" stroke-linecap="round" stroke-linejoin="round"/>
<circle cx="26" cy="41" r="3.5" fill="#ED4F9D" stroke="white"/>
</svg>
