<svg width="89" height="81" viewBox="0 0 89 81" fill="none" xmlns="http://www.w3.org/2000/svg">
<path d="M22.0542 75.1248C13.6453 70.6936 7.07332 63.8537 3.35755 55.6658C-0.358216 47.478 -1.01012 38.3999 1.50296 29.8394C4.01603 21.2789 9.55363 13.7146 17.2569 8.31944C24.9602 2.92433 34.3986 -1.05684e-07 44.1084 0C53.8182 1.05684e-07 63.2566 2.92433 70.9599 8.31945C78.6632 13.7146 84.2008 21.2789 86.7138 29.8394C89.2269 38.3999 88.575 47.478 84.8592 55.6658C81.1435 63.8537 74.5715 70.6936 66.1626 75.1248L60.1203 65.5726C66.2254 62.3554 70.9969 57.3895 73.6946 51.4449C76.3924 45.5003 76.8657 38.9093 75.0411 32.6942C73.2166 26.479 69.1961 20.9871 63.6033 17.0701C58.0105 13.1531 51.158 11.0299 44.1084 11.0299C37.0588 11.0299 30.2063 13.1531 24.6135 17.0701C19.0207 20.9871 15.0002 26.479 13.1757 32.6942C11.3511 38.9093 11.8244 45.5003 14.5222 51.4449C17.2199 57.3895 21.9914 62.3554 28.0964 65.5726L22.0542 75.1248Z" fill="#E6EBF8"/>
<path d="M22.0542 75.1248C15.1682 71.4961 9.48492 66.236 5.60567 59.9009L16.1544 54.5196C18.9708 59.1191 23.097 62.9381 28.0964 65.5726L22.0542 75.1248Z" fill="#179EC7"/>
</svg>
