<svg width="207" height="187" viewBox="0 0 207 187" fill="none" xmlns="http://www.w3.org/2000/svg">
<path d="M51.75 173.592C32.0186 163.353 16.5975 147.547 7.87847 128.628C-0.84055 109.708 -2.37023 88.7311 3.52668 68.9503C9.42358 49.1695 22.4175 31.6904 40.4932 19.2238C58.5689 6.75729 80.7161 -2.44204e-07 103.5 0C126.284 2.44204e-07 148.431 6.75729 166.507 19.2238C184.582 31.6904 197.576 49.1695 203.473 68.9503C209.37 88.7311 207.841 109.708 199.122 128.628C190.403 147.547 174.981 163.353 155.25 173.592L141.072 151.52C155.397 144.086 166.594 132.611 172.924 118.874C179.254 105.138 180.365 89.9082 176.083 75.5468C171.802 61.1854 162.368 48.4951 149.245 39.4441C136.121 30.393 120.042 25.487 103.5 25.487C86.9583 25.487 70.8788 30.393 57.7553 39.4441C44.6319 48.4951 35.1979 61.1854 30.9166 75.5468C26.6353 89.9082 27.7459 105.138 34.0762 118.874C40.4064 132.611 51.6025 144.086 65.9281 151.52L51.75 173.592Z" fill="#E6EBF8"/>
<path d="M51.75 173.592C35.5921 165.207 22.2563 153.052 13.1537 138.414L37.9061 125.979C44.5149 136.607 54.197 145.432 65.9281 151.52L51.75 173.592Z" fill="#179EC7"/>
</svg>
