<svg width="207" height="186" viewBox="0 0 207 186" fill="none" xmlns="http://www.w3.org/2000/svg">
<path d="M51.75 173.54C32.0186 163.304 16.5975 147.504 7.87847 128.59C-0.84055 109.675 -2.37023 88.7047 3.52668 68.9298C9.42358 49.1549 22.4175 31.681 40.4932 19.2181C58.5689 6.75528 80.7161 -2.44132e-07 103.5 0C126.284 2.44132e-07 148.431 6.75528 166.507 19.2181C184.582 31.681 197.576 49.1549 203.473 68.9298C209.37 88.7047 207.841 109.675 199.122 128.59C190.403 147.504 174.981 163.304 155.25 173.54L141.072 151.475C155.397 144.043 166.594 132.571 172.924 118.839C179.254 105.107 180.365 89.8815 176.083 75.5244C171.802 61.1673 162.368 48.4807 149.245 39.4324C136.121 30.384 120.042 25.4795 103.5 25.4795C86.9583 25.4795 70.8788 30.384 57.7553 39.4324C44.6319 48.4807 35.1979 61.1673 30.9166 75.5244C26.6353 89.8815 27.7459 105.107 34.0762 118.839C40.4064 132.571 51.6025 144.043 65.9281 151.475L51.75 173.54Z" fill="#E6EBF8"/>
<path d="M51.75 173.54C36.3044 165.528 23.4253 154.064 14.3616 140.262C5.29792 126.46 0.357216 110.788 0.0186504 94.7654C-0.319915 78.7427 3.95514 62.9132 12.4292 48.8121C20.9034 34.7109 33.2889 22.8167 48.3848 14.2828C63.4808 5.74893 80.7747 0.865031 98.5896 0.104724C116.405 -0.655583 134.136 2.73351 150.064 9.94333C165.992 17.1532 179.576 27.939 189.5 41.255C199.423 54.571 205.349 69.9651 206.702 85.9446L178.427 87.8776C177.445 76.2761 173.143 65.0995 165.938 55.4317C158.734 45.764 148.871 37.9331 137.307 32.6986C125.742 27.4641 112.869 25.0035 99.9349 25.5555C87.0008 26.1075 74.4449 29.6533 63.4849 35.8492C52.5248 42.045 43.5326 50.6805 37.3801 60.9183C31.2277 71.1562 28.1239 82.6488 28.3697 94.2818C28.6155 105.915 32.2026 117.293 38.7831 127.314C45.3636 137.334 54.7142 145.657 65.9281 151.475L51.75 173.54Z" fill="#179EC7"/>
</svg>
