<svg width="88" height="81" viewBox="0 0 88 81" fill="none" xmlns="http://www.w3.org/2000/svg">
<path d="M22 74.9437C13.6118 70.5232 7.05593 63.6997 3.3493 55.5316C-0.357335 47.3635 -1.00763 38.3073 1.49926 29.7675C4.00616 21.2276 9.53015 13.6815 17.2145 8.29939C24.8988 2.91728 34.3141 -1.05429e-07 44 0C53.6859 1.05429e-07 63.1012 2.91728 70.7855 8.29939C78.4698 13.6815 83.9938 21.2276 86.5007 29.7675C89.0076 38.3073 88.3573 47.3635 84.6507 55.5316C80.9441 63.6997 74.3882 70.5232 66 74.9437L59.9726 65.4145C66.0627 62.2051 70.8224 57.2511 73.5135 51.3208C76.2046 45.3906 76.6768 38.8155 74.8567 32.6153C73.0366 26.4152 69.0261 20.9365 63.447 17.0289C57.868 13.1214 51.0322 11.0033 44 11.0033C36.9678 11.0033 30.132 13.1214 24.553 17.0289C18.9739 20.9365 14.9634 26.4152 13.1433 32.6153C11.3232 38.8155 11.7954 45.3906 14.4865 51.3208C17.1776 57.2511 21.9373 62.2051 28.0274 65.4145L22 74.9437Z" fill="#E6EBF8"/>
<path d="M22 74.9437C15.4338 71.4834 9.95859 66.533 6.10542 60.5726C2.25225 54.6122 0.15186 47.8441 0.00792868 40.9246C-0.136002 34.0052 1.68141 27.1692 5.28393 21.0796C8.88645 14.99 14.1518 9.85343 20.5694 6.16806C26.987 2.48269 34.339 0.373565 41.9125 0.0452251C49.486 -0.283115 57.0239 1.18047 63.7953 4.29405C70.5667 7.40762 76.3417 12.0655 80.5603 17.8161C84.7789 23.5666 87.298 30.2146 87.8732 37.1153L75.8531 37.9501C75.4355 32.94 73.6066 28.1133 70.5438 23.9383C67.4809 19.7633 63.2881 16.3815 58.3719 14.1209C53.4557 11.8604 47.983 10.7978 42.4844 11.0362C36.9859 11.2746 31.6481 12.8058 26.9887 15.4815C22.3294 18.1572 18.5066 21.8865 15.8911 26.3077C13.2755 30.7289 11.9561 35.692 12.0606 40.7157C12.1651 45.7395 13.69 50.6533 16.4875 54.9807C19.285 59.3081 23.2601 62.9022 28.0274 65.4145L22 74.9437Z" fill="#179EC7"/>
</svg>
