<svg width="178" height="145" viewBox="0 0 178 145" fill="none" xmlns="http://www.w3.org/2000/svg">
<path d="M44.3683 134.999C27.4514 127.036 14.23 114.745 6.75468 100.031C-0.720654 85.3179 -2.03214 69.0045 3.02363 53.6214C8.0794 38.2382 19.2199 24.6451 34.7172 14.95C50.2146 5.25502 69.2027 -1.89913e-07 88.7367 0C108.271 1.89913e-07 127.259 5.25502 142.756 14.95C158.254 24.6451 169.394 38.2383 174.45 53.6214C179.506 69.0045 178.194 85.3179 170.719 100.031C163.243 114.745 150.022 127.036 133.105 134.999L120.949 117.834C133.231 112.053 142.831 103.129 148.258 92.4464C153.685 81.764 154.637 69.92 150.967 58.7514C147.296 47.5828 139.208 37.7138 127.956 30.6749C116.705 23.6361 102.919 19.8208 88.7367 19.8208C74.5545 19.8208 60.7686 23.6361 49.5171 30.6749C38.2656 37.7138 30.1773 47.5828 26.5067 58.7514C22.836 69.92 23.7882 81.764 29.2155 92.4464C34.6428 103.129 44.2419 112.053 56.5241 117.834L44.3683 134.999Z" fill="#E6EBF8"/>
<path d="M44.3683 134.999C32.5808 129.451 22.5168 121.766 14.9548 112.539C7.3929 103.312 2.53576 92.791 0.759155 81.7889C-1.01745 70.7869 0.334096 59.5991 4.70924 49.0911C9.08439 38.583 16.3659 29.0364 25.9904 21.1896C35.6149 13.3429 47.3244 7.40639 60.2132 3.83939C73.102 0.272386 86.8245 -0.829515 100.319 0.618928C113.814 2.06737 126.719 6.02733 138.036 12.1925C149.353 18.3576 158.779 26.5627 165.585 36.1729L144.531 46.0833C139.59 39.106 132.746 33.1489 124.529 28.6729C116.313 24.1968 106.943 21.3218 97.1459 20.2702C87.3484 19.2185 77.3855 20.0186 68.0279 22.6083C58.6703 25.198 50.1688 29.5081 43.1811 35.205C36.1935 40.902 30.9069 47.8331 27.7305 55.4623C24.554 63.0914 23.5727 71.214 24.8626 79.2018C26.1525 87.1896 29.6789 94.8284 35.169 101.527C40.6592 108.226 47.966 113.806 56.5241 117.834L44.3683 134.999Z" fill="#179EC7"/>
</svg>
