<svg width="887" height="303" viewBox="0 0 887 303" fill="none" xmlns="http://www.w3.org/2000/svg">
<line x1="1.5" y1="181.418" x2="878.063" y2="181.419" stroke="black" stroke-linecap="round" stroke-dasharray="4 4"/>
<path d="M1 286.767C56.7773 262.097 105.118 132.576 142.303 132.576C183.206 132.576 179.487 231.258 231.546 231.258C283.605 231.258 287.324 301.158 317.071 301.158C343.101 301.158 343.101 161.359 387.723 161.359C432.345 161.359 436.063 70.8999 469.529 70.8999C506.714 70.8999 517.87 243.594 558.773 243.594C607.113 243.594 640.58 58.5646 688.92 54.4528C718.668 54.4528 737.261 132.576 770.727 132.576C804.193 132.576 845.097 1 886 1" stroke="#179EC7" stroke-width="2" stroke-linecap="round"/>
</svg>
