<svg width="401" height="104" viewBox="0 0 401 104" fill="none" xmlns="http://www.w3.org/2000/svg">
<line x1="1.7002" y1="61.8135" x2="395.453" y2="61.8135" stroke="black" stroke-linecap="round" stroke-dasharray="4 4"/>
<path d="M1.2002 97.5035C26.2904 89.2234 48.0353 45.7531 64.7621 45.7531C83.1617 45.7531 81.489 78.8733 104.907 78.8733C128.324 78.8733 129.997 102.334 143.378 102.334C155.087 102.334 155.087 55.4132 175.159 55.4132C195.231 55.4132 196.904 25.0529 211.958 25.0529C228.685 25.0529 233.703 83.0134 252.103 83.0134C273.847 83.0134 288.902 20.9129 310.647 19.5329C324.028 19.5329 332.391 45.7531 347.446 45.7531C362.5 45.7531 380.899 1.59277 399.299 1.59277" stroke="#179EC7" stroke-width="2" stroke-linecap="round"/>
</svg>
