<svg width="195" height="104" viewBox="0 0 195 104" fill="none" xmlns="http://www.w3.org/2000/svg">
<line x1="1.5" y1="61.8135" x2="191.878" y2="61.8135" stroke="#E2E8F0" stroke-linecap="round" stroke-dasharray="4 4"/>
<path d="M1 97.5035C13.1639 89.2234 23.7059 45.7531 31.8151 45.7531C40.7353 45.7531 39.9244 78.8733 51.2773 78.8733C62.6303 78.8733 63.4412 102.334 69.9286 102.334C75.605 102.334 75.605 55.4132 85.3361 55.4132C95.0672 55.4132 95.8781 25.0529 103.176 25.0529C111.286 25.0529 113.718 83.0134 122.639 83.0134C133.181 83.0134 140.479 20.9129 151.021 19.5329C157.508 19.5329 161.563 45.7531 168.861 45.7531C176.16 45.7531 185.08 1.59277 194 1.59277" stroke="#179EC7" stroke-width="2" stroke-linecap="round"/>
</svg>
