<svg width="22" height="20" viewBox="0 0 22 20" fill="none" xmlns="http://www.w3.org/2000/svg">
<path d="M2 1L20 19" stroke="#64748B" stroke-width="1.5" stroke-linecap="round" stroke-linejoin="round"/>
<path d="M9.58396 8.58691C9.20868 8.96193 8.99775 9.47067 8.99756 10.0012C8.99737 10.5317 9.20795 11.0406 9.58296 11.4159C9.95798 11.7912 10.4667 12.0021 10.9973 12.0023C11.5278 12.0025 12.0367 11.7919 12.412 11.4169" stroke="#64748B" stroke-width="1.5" stroke-linecap="round" stroke-linejoin="round"/>
<path d="M8.363 4.36506C9.22042 4.11978 10.1082 3.9969 11 4.00006C15 4.00006 18.333 6.33306 21 11.0001C20.222 12.3611 19.388 13.5241 18.497 14.4881M16.357 16.3491C14.726 17.4491 12.942 18.0001 11 18.0001C7 18.0001 3.667 15.6671 1 11.0001C2.369 8.60506 3.913 6.82506 5.632 5.65906" stroke="#64748B" stroke-width="1.5" stroke-linecap="round" stroke-linejoin="round"/>
</svg>
