<svg width="879" height="311" viewBox="0 0 879 311" fill="none" xmlns="http://www.w3.org/2000/svg">
<line x1="1.5" y1="186.507" x2="870.13" y2="186.507" stroke="black" stroke-linecap="round" stroke-dasharray="4 4"/>
<path d="M1 294.805C56.2731 269.44 104.176 136.277 141.025 136.277C181.559 136.277 177.874 237.735 229.462 237.735C281.05 237.735 284.735 309.601 314.214 309.601C340.008 309.601 340.008 165.869 384.227 165.869C428.445 165.869 432.13 72.8659 465.294 72.8659C502.143 72.8659 513.197 250.417 553.731 250.417C601.634 250.417 634.798 60.1837 682.702 55.9563C712.181 55.9563 730.605 136.277 763.769 136.277C796.933 136.277 837.466 1 878 1" stroke="#179EC7" stroke-width="2" stroke-linecap="round"/>
</svg>
