<svg width="263" height="104" viewBox="0 0 263 104" fill="none" xmlns="http://www.w3.org/2000/svg">
<line x1="1.70117" y1="61.8135" x2="258.348" y2="61.8135" stroke="#E2E8F0" stroke-linecap="round" stroke-dasharray="4 4"/>
<path d="M1.20117 97.5035C17.577 89.2234 31.7694 45.7531 42.6866 45.7531C54.6956 45.7531 53.6038 78.8733 68.8879 78.8733C84.172 78.8733 85.2638 102.334 93.9975 102.334C101.64 102.334 101.64 55.4132 114.74 55.4132C127.841 55.4132 128.933 25.0529 138.758 25.0529C149.675 25.0529 152.951 83.0134 164.959 83.0134C179.152 83.0134 188.977 20.9129 203.17 19.5329C211.904 19.5329 217.362 45.7531 227.188 45.7531C237.013 45.7531 249.022 1.59277 261.031 1.59277" stroke="#179EC7" stroke-width="2" stroke-linecap="round"/>
</svg>
