<svg width="22" height="22" viewBox="0 0 22 22" fill="none" xmlns="http://www.w3.org/2000/svg">
<path d="M8.25008 3.66699H4.58341C4.07715 3.66699 3.66675 4.0774 3.66675 4.58366V8.25033C3.66675 8.75659 4.07715 9.16699 4.58341 9.16699H8.25008C8.75634 9.16699 9.16675 8.75659 9.16675 8.25033V4.58366C9.16675 4.0774 8.75634 3.66699 8.25008 3.66699Z" fill="#179EC7"/>
<path d="M17.4167 3.66699H13.7501C13.2438 3.66699 12.8334 4.0774 12.8334 4.58366V8.25033C12.8334 8.75659 13.2438 9.16699 13.7501 9.16699H17.4167C17.923 9.16699 18.3334 8.75659 18.3334 8.25033V4.58366C18.3334 4.0774 17.923 3.66699 17.4167 3.66699Z" fill="#179EC7"/>
<path d="M8.25008 12.8337H4.58341C4.07715 12.8337 3.66675 13.2441 3.66675 13.7503V17.417C3.66675 17.9233 4.07715 18.3337 4.58341 18.3337H8.25008C8.75634 18.3337 9.16675 17.9233 9.16675 17.417V13.7503C9.16675 13.2441 8.75634 12.8337 8.25008 12.8337Z" fill="#179EC7"/>
<path d="M17.4167 12.8337H13.7501C13.2438 12.8337 12.8334 13.2441 12.8334 13.7503V17.417C12.8334 17.9233 13.2438 18.3337 13.7501 18.3337H17.4167C17.923 18.3337 18.3334 17.9233 18.3334 17.417V13.7503C18.3334 13.2441 17.923 12.8337 17.4167 12.8337Z" fill="#179EC7"/>
<path d="M8.25008 3.66699H4.58341C4.07715 3.66699 3.66675 4.0774 3.66675 4.58366V8.25033C3.66675 8.75659 4.07715 9.16699 4.58341 9.16699H8.25008C8.75634 9.16699 9.16675 8.75659 9.16675 8.25033V4.58366C9.16675 4.0774 8.75634 3.66699 8.25008 3.66699Z" stroke="#179EC7" stroke-width="2" stroke-linecap="round" stroke-linejoin="round"/>
<path d="M17.4167 3.66699H13.7501C13.2438 3.66699 12.8334 4.0774 12.8334 4.58366V8.25033C12.8334 8.75659 13.2438 9.16699 13.7501 9.16699H17.4167C17.923 9.16699 18.3334 8.75659 18.3334 8.25033V4.58366C18.3334 4.0774 17.923 3.66699 17.4167 3.66699Z" stroke="#179EC7" stroke-width="2" stroke-linecap="round" stroke-linejoin="round"/>
<path d="M8.25008 12.8337H4.58341C4.07715 12.8337 3.66675 13.2441 3.66675 13.7503V17.417C3.66675 17.9233 4.07715 18.3337 4.58341 18.3337H8.25008C8.75634 18.3337 9.16675 17.9233 9.16675 17.417V13.7503C9.16675 13.2441 8.75634 12.8337 8.25008 12.8337Z" stroke="#179EC7" stroke-width="2" stroke-linecap="round" stroke-linejoin="round"/>
<path d="M17.4167 12.8337H13.7501C13.2438 12.8337 12.8334 13.2441 12.8334 13.7503V17.417C12.8334 17.9233 13.2438 18.3337 13.7501 18.3337H17.4167C17.923 18.3337 18.3334 17.9233 18.3334 17.417V13.7503C18.3334 13.2441 17.923 12.8337 17.4167 12.8337Z" stroke="#179EC7" stroke-width="2" stroke-linecap="round" stroke-linejoin="round"/>
</svg>
