<svg width="321" height="157" viewBox="0 0 321 157" fill="none" xmlns="http://www.w3.org/2000/svg">
<path d="M60.8235 48.8862C47.2897 48.8862 25.736 85.788 2.17724 85.788L2.17724 156.383L319.468 156.383L319.469 67.0695C300.922 67.0695 283.379 1.28811 265.835 1.28811C248.291 1.28811 231.249 75.0919 216.211 75.0919C201.174 75.0919 182.126 32.8419 165.585 32.8419C151.049 32.8419 128.492 99.1582 112.452 99.1582C100.422 99.1582 75.861 48.8862 60.8235 48.8862Z" fill="url(#paint0_linear_387_11706)"/>
<path d="M2.17724 85.788C25.736 85.788 47.2897 48.8862 60.8235 48.8862C75.861 48.8862 100.422 99.1582 112.452 99.1582C128.492 99.1582 151.049 32.8419 165.585 32.8419C182.126 32.8419 201.173 75.0919 216.211 75.0919C231.249 75.0919 248.291 1.28812 265.835 1.28812C283.379 1.28812 300.922 67.0695 319.469 67.0695" stroke="#179EC7" stroke-width="2.5" stroke-linecap="round"/>
<defs>
<linearGradient id="paint0_linear_387_11706" x1="160.572" y1="-396.076" x2="160.572" y2="162.801" gradientUnits="userSpaceOnUse">
<stop stop-color="#2563EB" stop-opacity="0.5"/>
<stop offset="1" stop-color="#2563EB" stop-opacity="0"/>
</linearGradient>
</defs>
</svg>
