<svg width="941" height="441" viewBox="0 0 941 441" fill="none" xmlns="http://www.w3.org/2000/svg">
<path d="M175.155 136.728C135.196 136.728 71.5579 241.179 1.99997 241.179L1.99997 441L938.812 441L938.812 188.196C884.053 188.196 832.255 2.00005 780.457 2.00005C728.658 2.00005 678.34 210.903 633.941 210.903C589.542 210.903 533.304 91.3137 484.465 91.3137C441.547 91.3137 374.949 279.024 327.59 279.024C292.071 279.024 219.553 136.728 175.155 136.728Z" fill="url(#paint0_linear_387_11911)"/>
<path d="M1.99997 241.179C71.5579 241.179 135.196 136.728 175.155 136.728C219.553 136.728 292.071 279.024 327.59 279.024C374.949 279.024 441.547 91.3137 484.465 91.3137C533.304 91.3137 589.542 210.903 633.941 210.903C678.34 210.903 728.658 2.00008 780.457 2.00008C832.255 2.00008 884.053 188.196 938.812 188.196" stroke="#179EC7" stroke-width="2.5" stroke-linecap="round"/>
<defs>
<linearGradient id="paint0_linear_387_11911" x1="469.666" y1="-1122.75" x2="469.666" y2="459.165" gradientUnits="userSpaceOnUse">
<stop stop-color="#2563EB" stop-opacity="0.5"/>
<stop offset="1" stop-color="#2563EB" stop-opacity="0"/>
</linearGradient>
</defs>
</svg>
