<svg width="392" height="174" viewBox="0 0 392 174" fill="none" xmlns="http://www.w3.org/2000/svg">
<path d="M73.9611 54.614C57.3898 54.614 30.9986 95.3369 2.15233 95.3369L2.15233 173.242L390.656 173.242L390.656 74.6802C367.947 74.6802 346.466 2.08712 324.985 2.08712C303.504 2.08712 282.636 83.5333 264.224 83.5333C245.811 83.5333 222.489 36.9083 202.235 36.9083C184.436 36.9083 156.817 110.092 137.177 110.092C122.447 110.092 92.3736 54.614 73.9611 54.614Z" fill="url(#paint0_linear_490_5804)"/>
<path d="M2.15233 95.337C30.9986 95.337 57.3898 54.614 73.9611 54.614C92.3736 54.614 122.447 110.092 137.177 110.092C156.817 110.092 184.436 36.9083 202.235 36.9083C222.489 36.9083 245.811 83.5333 264.224 83.5333C282.636 83.5333 303.504 2.08713 324.985 2.08713C346.466 2.08713 367.947 74.6802 390.656 74.6802" stroke="#179EC7" stroke-width="2.5" stroke-linecap="round"/>
<defs>
<linearGradient id="paint0_linear_490_5804" x1="196.097" y1="-436.424" x2="196.097" y2="180.324" gradientUnits="userSpaceOnUse">
<stop stop-color="#2563EB" stop-opacity="0.5"/>
<stop offset="1" stop-color="#2563EB" stop-opacity="0"/>
</linearGradient>
</defs>
</svg>
