<svg width="341" height="355" viewBox="0 0 341 355" fill="none" xmlns="http://www.w3.org/2000/svg">
<path d="M0 18C0 12.4087 0 9.61305 0.913446 7.4078C2.13137 4.46746 4.46746 2.13137 7.4078 0.913446C9.61305 0 12.4087 0 18 0H323C328.591 0 331.387 0 333.592 0.913446C336.533 2.13137 338.869 4.46746 340.087 7.4078C341 9.61305 341 12.4087 341 18V337C341 342.591 341 345.387 340.087 347.592C338.869 350.533 336.533 352.869 333.592 354.087C331.387 355 328.591 355 323 355H18C12.4087 355 9.61305 355 7.4078 354.087C4.46746 352.869 2.13137 350.533 0.913446 347.592C0 345.387 0 342.591 0 337V18Z" fill="white"/>
</svg>
