<svg width="691" height="340" viewBox="0 0 691 340" fill="none" xmlns="http://www.w3.org/2000/svg">
<path d="M0 18C0 12.4087 0 9.61305 0.913446 7.4078C2.13137 4.46746 4.46746 2.13137 7.4078 0.913446C9.61305 0 12.4087 0 18 0H673C678.591 0 681.387 0 683.592 0.913446C686.533 2.13137 688.869 4.46746 690.087 7.4078C691 9.61305 691 12.4087 691 18V322C691 327.591 691 330.387 690.087 332.592C688.869 335.533 686.533 337.869 683.592 339.087C681.387 340 678.591 340 673 340H18C12.4087 340 9.61305 340 7.4078 339.087C4.46746 337.869 2.13137 335.533 0.913446 332.592C0 330.387 0 327.591 0 322V18Z" fill="white"/>
</svg>
