<svg width="111" height="87" viewBox="0 0 111 87" fill="none" xmlns="http://www.w3.org/2000/svg">
<path d="M22.8411 86.3154L26.243 82.2891" stroke="#CCCCCC"/>
<path d="M18.3213 83.1692L22.194 79.4707" stroke="#CCCCCC"/>
<path d="M14.2097 79.6329L18.5108 76.3027" stroke="#CCCCCC"/>
<path d="M10.5474 75.7466L15.2297 72.8213" stroke="#CCCCCC"/>
<path d="M4.73926 67.0956L10.0266 65.0713" stroke="#CCCCCC"/>
<path d="M2.65552 62.4276L8.15992 60.8896" stroke="#CCCCCC"/>
<path d="M1.15186 57.5963L6.81305 56.5615" stroke="#CCCCCC"/>
<path d="M0.240967 52.6569L5.99693 52.1367" stroke="#CCCCCC"/>
<path d="M0.240967 42.668L5.99693 43.1882" stroke="#CCCCCC"/>
<path d="M1.15186 37.7285L6.81305 38.7633" stroke="#CCCCCC"/>
<path d="M2.65552 32.8975L8.15992 34.4354" stroke="#CCCCCC"/>
<path d="M4.73926 28.2305L10.0266 30.2547" stroke="#CCCCCC"/>
<path d="M10.5474 19.5801L15.2297 22.5054" stroke="#CCCCCC"/>
<path d="M14.2097 15.6924L18.5108 19.0226" stroke="#CCCCCC"/>
<path d="M18.3213 12.1572L22.194 15.8558" stroke="#CCCCCC"/>
<path d="M22.8411 9.01074L26.243 13.0371" stroke="#CCCCCC"/>
<path d="M32.9019 4.01562L35.2559 8.56222" stroke="#CCCCCC"/>
<path d="M38.3293 2.22266L40.1178 6.95593" stroke="#CCCCCC"/>
<path d="M43.9478 0.928711L45.1511 5.79682" stroke="#CCCCCC"/>
<path d="M49.6904 0.146484L50.2954 5.09608" stroke="#CCCCCC"/>
<path d="M61.3069 0.146484L60.7019 5.09608" stroke="#CCCCCC"/>
<path d="M67.0524 0.928711L65.8491 5.79682" stroke="#CCCCCC"/>
<path d="M72.6691 2.22266L70.8806 6.95593" stroke="#CCCCCC"/>
<path d="M78.098 4.01562L75.7439 8.56222" stroke="#CCCCCC"/>
<path d="M88.1578 9.01074L84.7559 13.0371" stroke="#CCCCCC"/>
<path d="M92.6779 12.1572L88.8052 15.8558" stroke="#CCCCCC"/>
<path d="M96.7901 15.6924L92.489 19.0226" stroke="#CCCCCC"/>
<path d="M100.45 19.5801L95.7676 22.5054" stroke="#CCCCCC"/>
<path d="M106.258 28.2305L100.971 30.2547" stroke="#CCCCCC"/>
<path d="M108.341 32.8975L102.836 34.4354" stroke="#CCCCCC"/>
<path d="M109.845 37.7285L104.184 38.7633" stroke="#CCCCCC"/>
<path d="M110.757 42.668L105.001 43.1882" stroke="#CCCCCC"/>
<path d="M110.757 52.6569L105.001 52.1367" stroke="#CCCCCC"/>
<path d="M109.845 57.5963L104.184 56.5615" stroke="#CCCCCC"/>
<path d="M108.341 62.4266L102.836 60.8887" stroke="#CCCCCC"/>
<path d="M106.258 67.0956L100.971 65.0713" stroke="#CCCCCC"/>
<path d="M100.45 75.7466L95.7676 72.8213" stroke="#CCCCCC"/>
<path d="M96.7901 79.6329L92.489 76.3027" stroke="#CCCCCC"/>
<path d="M92.6779 83.1692L88.8052 79.4707" stroke="#CCCCCC"/>
<path d="M88.1578 86.3154L84.7559 82.2891" stroke="#CCCCCC"/>
</svg>
