<svg width="505" height="340" viewBox="0 0 505 340" fill="none" xmlns="http://www.w3.org/2000/svg">
<path d="M0 18C0 12.4087 0 9.61305 0.913446 7.4078C2.13137 4.46746 4.46746 2.13137 7.4078 0.913446C9.61305 0 12.4087 0 18 0H487C492.591 0 495.387 0 497.592 0.913446C500.533 2.13137 502.869 4.46746 504.087 7.4078C505 9.61305 505 12.4087 505 18V322C505 327.591 505 330.387 504.087 332.592C502.869 335.533 500.533 337.869 497.592 339.087C495.387 340 492.591 340 487 340H18C12.4087 340 9.61305 340 7.4078 339.087C4.46746 337.869 2.13137 335.533 0.913446 332.592C0 330.387 0 327.591 0 322V18Z" fill="white"/>
</svg>
