<svg width="345" height="355" viewBox="0 0 345 355" fill="none" xmlns="http://www.w3.org/2000/svg">
<path d="M0 18C0 12.4087 0 9.61305 0.913446 7.4078C2.13137 4.46746 4.46746 2.13137 7.4078 0.913446C9.61305 0 12.4087 0 18 0H327C332.591 0 335.387 0 337.592 0.913446C340.533 2.13137 342.869 4.46746 344.087 7.4078C345 9.61305 345 12.4087 345 18V337C345 342.591 345 345.387 344.087 347.592C342.869 350.533 340.533 352.869 337.592 354.087C335.387 355 332.591 355 327 355H18C12.4087 355 9.61305 355 7.4078 354.087C4.46746 352.869 2.13137 350.533 0.913446 347.592C0 345.387 0 342.591 0 337V18Z" fill="white"/>
</svg>
