<svg width="401" height="338" viewBox="0 0 401 338" fill="none" xmlns="http://www.w3.org/2000/svg">
<path d="M0 18C0 12.4087 0 9.61305 0.913446 7.4078C2.13137 4.46746 4.46746 2.13137 7.4078 0.913446C9.61305 0 12.4087 0 18 0H383C388.591 0 391.387 0 393.592 0.913446C396.533 2.13137 398.869 4.46746 400.087 7.4078C401 9.61305 401 12.4087 401 18V320C401 325.591 401 328.387 400.087 330.592C398.869 333.533 396.533 335.869 393.592 337.087C391.387 338 388.591 338 383 338H18C12.4087 338 9.61305 338 7.4078 337.087C4.46746 335.869 2.13137 333.533 0.913446 330.592C0 328.387 0 325.591 0 320V18Z" fill="white"/>
</svg>
