<svg width="1111" height="372" viewBox="0 0 1111 372" fill="none" xmlns="http://www.w3.org/2000/svg">
<path d="M0 18C0 12.4087 0 9.61305 0.913446 7.4078C2.13137 4.46746 4.46746 2.13137 7.4078 0.913446C9.61305 0 12.4087 0 18 0H1093C1098.59 0 1101.39 0 1103.59 0.913446C1106.53 2.13137 1108.87 4.46746 1110.09 7.4078C1111 9.61305 1111 12.4087 1111 18V354C1111 359.591 1111 362.387 1110.09 364.592C1108.87 367.533 1106.53 369.869 1103.59 371.087C1101.39 372 1098.59 372 1093 372H18C12.4087 372 9.61305 372 7.4078 371.087C4.46746 369.869 2.13137 367.533 0.913446 364.592C0 362.387 0 359.591 0 354V18Z" fill="white"/>
</svg>
