<svg width="111" height="87" viewBox="0 0 111 87" fill="none" xmlns="http://www.w3.org/2000/svg">
<path d="M22.8413 86.3159L26.2432 82.2896" stroke="#CCCCCC"/>
<path d="M18.3213 83.169L22.194 79.4705" stroke="#CCCCCC"/>
<path d="M14.21 79.6329L18.511 76.3027" stroke="#CCCCCC"/>
<path d="M10.5479 75.7464L15.2302 72.821" stroke="#CCCCCC"/>
<path d="M4.73926 67.096L10.0266 65.0718" stroke="#CCCCCC"/>
<path d="M2.65576 62.4278L8.16016 60.8899" stroke="#CCCCCC"/>
<path d="M1.15234 57.5968L6.81354 56.562" stroke="#CCCCCC"/>
<path d="M0.241211 52.6572L5.99718 52.137" stroke="#CCCCCC"/>
<path d="M0.241211 42.6687L5.99718 43.1889" stroke="#CCCCCC"/>
<path d="M1.15234 37.7288L6.81354 38.7635" stroke="#CCCCCC"/>
<path d="M2.65576 32.8982L8.16016 34.4361" stroke="#CCCCCC"/>
<path d="M4.73926 28.2302L10.0266 30.2545" stroke="#CCCCCC"/>
<path d="M10.5479 19.5798L15.2302 22.5052" stroke="#CCCCCC"/>
<path d="M14.21 15.6929L18.511 19.023" stroke="#CCCCCC"/>
<path d="M18.3213 12.1575L22.194 15.856" stroke="#CCCCCC"/>
<path d="M22.8413 9.01074L26.2432 13.0371" stroke="#CCCCCC"/>
<path d="M32.9019 4.01611L35.2559 8.56271" stroke="#CCCCCC"/>
<path d="M38.3296 2.22266L40.1181 6.95593" stroke="#CCCCCC"/>
<path d="M43.9478 0.929443L45.1511 5.79755" stroke="#CCCCCC"/>
<path d="M49.6904 0.146729L50.2954 5.09633" stroke="#CCCCCC"/>
<path d="M61.3071 0.146729L60.7021 5.09633" stroke="#CCCCCC"/>
<path d="M67.0529 0.929443L65.8496 5.79755" stroke="#CCCCCC"/>
<path d="M72.6693 2.22266L70.8809 6.95593" stroke="#CCCCCC"/>
<path d="M78.0982 4.01611L75.7441 8.56271" stroke="#CCCCCC"/>
<path d="M88.1583 9.01074L84.7563 13.0371" stroke="#CCCCCC"/>
<path d="M92.6779 12.1575L88.8052 15.856" stroke="#CCCCCC"/>
<path d="M96.7903 15.6929L92.4893 19.023" stroke="#CCCCCC"/>
<path d="M100.45 19.5798L95.7681 22.5052" stroke="#CCCCCC"/>
<path d="M106.258 28.2302L100.971 30.2545" stroke="#CCCCCC"/>
<path d="M108.341 32.8982L102.836 34.4361" stroke="#CCCCCC"/>
<path d="M109.845 37.7288L104.184 38.7635" stroke="#CCCCCC"/>
<path d="M110.757 42.6687L105.001 43.1889" stroke="#CCCCCC"/>
<path d="M110.757 52.6572L105.001 52.137" stroke="#CCCCCC"/>
<path d="M109.845 57.5968L104.184 56.562" stroke="#CCCCCC"/>
<path d="M108.341 62.4269L102.836 60.8889" stroke="#CCCCCC"/>
<path d="M106.258 67.096L100.971 65.0718" stroke="#CCCCCC"/>
<path d="M100.45 75.7464L95.7681 72.821" stroke="#CCCCCC"/>
<path d="M96.7903 79.6329L92.4893 76.3027" stroke="#CCCCCC"/>
<path d="M92.6779 83.169L88.8052 79.4705" stroke="#CCCCCC"/>
<path d="M88.1583 86.3159L84.7563 82.2896" stroke="#CCCCCC"/>
</svg>
