<svg width="169" height="146" viewBox="0 0 169 146" fill="none" xmlns="http://www.w3.org/2000/svg">
<path d="M42.25 135.59C26.1408 127.592 13.5506 115.247 6.43218 100.469C-0.686246 85.691 -1.93511 69.3063 2.87927 53.8559C7.69365 38.4054 18.3022 24.7528 33.0597 15.0154C47.8171 5.278 65.8987 -1.90744e-07 84.5 0C103.101 1.90744e-07 121.183 5.278 135.94 15.0154C150.698 24.7528 161.306 38.4054 166.121 53.8559C170.935 69.3063 169.686 85.691 162.568 100.469C155.449 115.247 142.859 127.592 126.75 135.59L115.175 118.349C126.87 112.543 136.011 103.58 141.179 92.8506C146.348 82.1215 147.254 70.2257 143.759 59.0083C140.264 47.7909 132.561 37.8787 121.847 30.8091C111.133 23.7394 98.0051 19.9075 84.5 19.9075C70.9949 19.9075 57.8672 23.7394 47.1529 30.8091C36.4386 37.8787 28.7365 47.7909 25.2411 59.0083C21.7457 70.2257 22.6525 82.1215 27.8206 92.8506C32.9888 103.58 42.1296 112.543 53.8253 118.349L42.25 135.59Z" fill="#E6EBF8"/>
<path d="M42.25 135.59C29.6399 129.329 19.125 120.373 11.7252 109.589C4.32535 98.8054 0.29164 86.5604 0.0152267 74.0416C-0.261187 61.5228 3.22908 49.155 10.1476 38.1376C17.066 27.1201 27.1779 17.827 39.5026 11.1594C51.8273 4.49172 65.9465 0.675861 80.4911 0.081822C95.0356 -0.512217 109.512 2.13573 122.516 7.76887C135.52 13.402 146.611 21.8292 154.712 32.2331C162.814 42.6371 167.652 54.6647 168.756 67.1497L145.673 68.66C144.87 59.5956 141.358 50.8631 135.476 43.3096C129.594 35.756 121.542 29.6377 112.101 25.5479C102.659 21.4581 92.1491 19.5356 81.5894 19.9669C71.0297 20.3982 60.7787 23.1686 51.8307 28.0095C42.8826 32.8503 35.5411 39.5974 30.5181 47.5964C25.4951 55.5953 22.9611 64.5747 23.1617 73.6637C23.3624 82.7527 26.291 91.6428 31.6635 99.4721C37.036 107.301 44.67 113.804 53.8253 118.349L42.25 135.59Z" fill="#179EC7"/>
</svg>
