<svg width="169" height="145" viewBox="0 0 169 145" fill="none" xmlns="http://www.w3.org/2000/svg">
<path d="M42.25 134.966C26.1408 127.06 13.5506 114.857 6.43218 100.249C-0.686246 85.6403 -1.93511 69.4436 2.87927 54.1705C7.69365 38.8974 18.3022 25.4014 33.0597 15.7757C47.8171 6.15005 65.8987 0.932617 84.5 0.932617C103.101 0.932617 121.183 6.15005 135.94 15.7757C150.698 25.4014 161.306 38.8974 166.121 54.1705C170.935 69.4436 169.686 85.6403 162.568 100.249C155.449 114.857 142.859 127.06 126.75 134.966L115.175 117.924C126.87 112.184 136.011 103.324 141.179 92.7178C146.348 82.1118 147.254 70.3525 143.759 59.2638C140.264 48.1751 132.561 38.3767 121.847 31.3882C111.133 24.3996 98.0051 20.6116 84.5 20.6116C70.9949 20.6116 57.8672 24.3996 47.1529 31.3882C36.4386 38.3767 28.7365 48.1751 25.2411 59.2638C21.7457 70.3525 22.6525 82.1118 27.8206 92.7178C32.9888 103.324 42.1296 112.184 53.8253 117.924L42.25 134.966Z" fill="#E6EBF8"/>
<path d="M42.25 134.966C29.6399 128.778 19.125 119.924 11.7252 109.264C4.32535 98.6042 0.29164 86.4998 0.0152267 74.1246C-0.261187 61.7495 3.22908 49.5236 10.1476 38.6326C17.066 27.7416 27.1779 18.5551 39.5026 11.9639C51.8273 5.3728 65.9465 1.60072 80.4911 1.0135C95.0356 0.426278 109.512 3.04384 122.516 8.61234C135.52 14.1808 146.611 22.5113 154.712 32.7959C162.814 43.0805 167.652 54.9701 168.756 67.3118L145.673 68.8048C144.87 59.8444 141.358 51.2121 135.476 43.7453C129.594 36.2784 121.542 30.2302 112.101 26.1873C102.659 22.1445 92.1491 20.244 81.5894 20.6704C71.0297 21.0967 60.7787 23.8353 51.8307 28.6207C42.8826 33.406 35.5411 40.0757 30.5181 47.9828C25.4951 55.89 22.9611 64.7663 23.1617 73.751C23.3624 82.7357 26.291 91.5239 31.6635 99.2633C37.036 107.003 44.67 113.431 53.8253 117.924L42.25 134.966Z" fill="#179EC7"/>
</svg>
