<svg width="293" height="103" viewBox="0 0 293 103" fill="none" xmlns="http://www.w3.org/2000/svg">
<line x1="4.5" y1="60.5" x2="291.995" y2="60.5001" stroke="black" stroke-linecap="round" stroke-dasharray="4 4"/>
<path d="M1 96.9107C19.3366 88.6306 35.2283 45.1603 47.4527 45.1603C60.8995 45.1603 59.677 78.2806 76.7912 78.2806C93.9053 78.2806 95.1277 101.741 104.907 101.741C113.464 101.741 113.464 54.8204 128.134 54.8204C142.803 54.8204 144.025 24.4602 155.027 24.4602C167.252 24.4602 170.919 82.4206 184.366 82.4206C200.257 82.4206 211.259 20.3201 227.151 18.9401C236.931 18.9401 243.043 45.1603 254.045 45.1603C265.047 45.1603 278.493 1 291.94 1" stroke="#179EC7" stroke-width="2" stroke-linecap="round"/>
</svg>
