<svg width="982" height="155" viewBox="0 0 982 155" fill="none" xmlns="http://www.w3.org/2000/svg">
<path d="M7.87695 31.7978C48.0833 31.7978 122.5 8.5 190.5 8.5C237.5 11 292 31.7978 324 31.7978C380 31.7978 434.725 31.7978 478 31.7978C521.276 31.7978 576.869 42.5 630 42.5C719.5 31.7978 760.5 49 814 46C879.5 31.7978 919 29.5 974 31.7978" stroke="#179EC7" stroke-width="2" stroke-linecap="round"/>
<path fill-rule="evenodd" clip-rule="evenodd" d="M7.98277 31.7978C48.1847 31.7978 124.5 13 175 7.5C235.5 7.5 288.197 31.7979 335.673 31.7979C383.15 31.7979 435.882 31.7979 468.5 31.7979C511.771 31.7979 578.375 42 631.5 42C697.34 31.2982 787.435 54.0605 838.5 42C889.565 29.9396 926.517 31.7978 974.123 31.7978C973.813 42.422 974.123 154.563 974.123 154.563L7.98277 153.084C7.98277 153.084 7.77105 43.9884 7.98277 31.7978Z" fill="url(#paint0_linear_337_12759)"/>
<ellipse cx="971.869" cy="30.5521" rx="9.86935" ry="7.55212" fill="#179EC7"/>
<ellipse cx="839.869" cy="41.5521" rx="9.86935" ry="7.55212" fill="#179EC7"/>
<ellipse cx="631.869" cy="41.5521" rx="9.86935" ry="7.55212" fill="#179EC7"/>
<ellipse cx="463.869" cy="30.5521" rx="9.86935" ry="7.55212" fill="#179EC7"/>
<path d="M337.739 30.5521C337.739 34.723 333.32 38.1042 327.869 38.1042C322.419 38.1042 318 34.723 318 30.5521C318 26.3812 322.419 23 327.869 23C333.32 23 337.739 26.3812 337.739 30.5521Z" fill="#179EC7"/>
<ellipse cx="190.869" cy="7.55212" rx="9.86935" ry="7.55212" fill="#179EC7"/>
<ellipse cx="9.86935" cy="30.2552" rx="9.86935" ry="7.55212" fill="#179EC7"/>
<defs>
<linearGradient id="paint0_linear_337_12759" x1="7.87646" y1="-12.7949" x2="7.87646" y2="154.563" gradientUnits="userSpaceOnUse">
<stop stop-color="#009DFF" stop-opacity="0.31728"/>
<stop offset="1" stop-color="#0095FF" stop-opacity="0.01"/>
</linearGradient>
</defs>
</svg>
