<svg width="982" height="284" viewBox="0 0 982 284" fill="none" xmlns="http://www.w3.org/2000/svg">
<path d="M7.87695 10.6934C69.5881 24.4576 119.532 59.9561 189.048 59.9561C258.564 59.9561 283.854 118.499 328.5 118.499C373.147 118.499 400.115 198.499 462 198.499C523.886 198.499 570.856 136.999 633 136.999C695.145 136.999 777.621 198.499 837 198.499C896.379 198.499 974 67.9995 974 67.9995" stroke="#FD5252" stroke-width="2" stroke-linecap="round"/>
<path fill-rule="evenodd" clip-rule="evenodd" d="M7.8764 10.6934C69.5875 24.4576 119.532 59.9561 189.048 59.9561C258.563 59.9561 283.854 119.499 328.5 119.499C373.146 119.499 401.615 196.999 463.5 196.999C525.385 196.999 575.356 136.999 637.5 136.999C699.644 136.999 778.621 196.999 838 196.999C897.379 196.999 974.122 69.9995 974.122 69.9995V283.301H7.8764C7.8764 283.301 7.46455 25.6118 7.8764 10.6934Z" fill="url(#paint0_linear_337_12749)"/>
<ellipse cx="971.869" cy="64.5521" rx="9.86935" ry="7.55212" fill="#FD5252"/>
<ellipse cx="839.869" cy="202.552" rx="9.86935" ry="7.55212" fill="#FD5252"/>
<ellipse cx="631.869" cy="134.552" rx="9.86935" ry="7.55212" fill="#FD5252"/>
<ellipse cx="463.869" cy="199.552" rx="9.86935" ry="7.55212" fill="#FD5252"/>
<ellipse cx="327.869" cy="115.552" rx="9.86935" ry="7.55212" fill="#FD5252"/>
<ellipse cx="191.04" cy="58.6342" rx="9.86935" ry="7.55212" fill="#FD5252"/>
<ellipse cx="9.86935" cy="8.34509" rx="9.86935" ry="7.55212" fill="#FD5252"/>
<defs>
<linearGradient id="paint0_linear_337_12749" x1="7.67089" y1="-28.5903" x2="7.67089" y2="283.301" gradientUnits="userSpaceOnUse">
<stop stop-color="#E00000" stop-opacity="0.326568"/>
<stop offset="1" stop-color="white" stop-opacity="0.01"/>
</linearGradient>
</defs>
</svg>
