<svg width="911" height="317" viewBox="0 0 911 317" fill="none" xmlns="http://www.w3.org/2000/svg">
<g clip-path="url(#clip0_366_10191)">
<mask id="mask0_366_10191" style="mask-type:luminance" maskUnits="userSpaceOnUse" x="0" y="0" width="911" height="317">
<rect x="0.951172" y="0.787109" width="909.854" height="315.227" fill="white"/>
</mask>
<g mask="url(#mask0_366_10191)">
<path d="M1 124.519C65.5 124.519 65.7988 99.3479 201.5 108.5C345 118.178 350.494 136.981 495.5 116.5C627.588 82.1329 648.5 160.5 795.31 124.519C820 124.519 822.5 103 922.5 81" stroke="#00E096" stroke-width="4"/>
<path d="M-1 151C51.0285 151 145.858 151 259.143 151C385.5 151 325.306 98.5 467.5 98.5C591.568 98.5 561.931 151 688 151C781.051 151 870.979 98.5 909 98.5" stroke="#179EC7" stroke-width="4"/>
</g>
</g>
<defs>
<clipPath id="clip0_366_10191">
<rect width="909.854" height="315.227" fill="white" transform="translate(0.951172 0.787109)"/>
</clipPath>
</defs>
</svg>
